<mxfile host="app.diagrams.net" modified="2021-07-31T12:52:14.210Z" agent="5.0 (Windows NT 10.0; Win64; x64) AppleWebKit/537.36 (KHTML, like Gecko) Chrome/92.0.4515.107 Safari/537.36 Edg/92.0.902.62" etag="jjk6ik4r1NolUkBz3diA" version="14.9.3" type="github">
  <diagram id="wSuyyZf38-208Cc4B6x1" name="Page-1">
    <mxGraphModel dx="591" dy="784" grid="1" gridSize="10" guides="1" tooltips="1" connect="1" arrows="1" fold="1" page="1" pageScale="1" pageWidth="827" pageHeight="1169" math="0" shadow="0">
      <root>
        <mxCell id="0" />
        <mxCell id="1" parent="0" />
        <mxCell id="GUt3DPPbfCVoAX1tNQYl-1" value="User" style="swimlane;fontStyle=0;childLayout=stackLayout;horizontal=1;startSize=26;horizontalStack=0;resizeParent=1;resizeParentMax=0;resizeLast=0;collapsible=1;marginBottom=0;" vertex="1" parent="1">
          <mxGeometry x="40" y="40" width="180" height="560" as="geometry" />
        </mxCell>
        <mxCell id="GUt3DPPbfCVoAX1tNQYl-3" value="- email : String" style="text;strokeColor=none;fillColor=none;align=left;verticalAlign=top;spacingLeft=4;spacingRight=4;overflow=hidden;rotatable=0;points=[[0,0.5],[1,0.5]];portConstraint=eastwest;" vertex="1" parent="GUt3DPPbfCVoAX1tNQYl-1">
          <mxGeometry y="26" width="180" height="26" as="geometry" />
        </mxCell>
        <mxCell id="GUt3DPPbfCVoAX1tNQYl-4" value="- nickname : String&#xa;&#xa;-password : String&#xa;&#xa;-certification : Boolean&#xa;&#xa;-image : image&#xa;&#xa;-checkpassword :String&#xa;&#xa;-count_yellowcard : int&#xa;&#xa;-User_Type : boolean&#xa;&#xa;-introduce : String&#xa;&#xa;&#xa;&#xa;+ check_nickname()&#xa;&#xa;+ check_password()&#xa;&#xa;+사용자, 관리자 구분?&#xa;&#xa;+ check_vaccine()&#xa;&#xa;+ init_DBUser()&#xa;&#xa;&#xa;&#xa;" style="text;strokeColor=none;fillColor=none;align=left;verticalAlign=top;spacingLeft=4;spacingRight=4;overflow=hidden;rotatable=0;points=[[0,0.5],[1,0.5]];portConstraint=eastwest;" vertex="1" parent="GUt3DPPbfCVoAX1tNQYl-1">
          <mxGeometry y="52" width="180" height="508" as="geometry" />
        </mxCell>
        <mxCell id="GUt3DPPbfCVoAX1tNQYl-45" value="Mention" style="shape=table;startSize=30;container=1;collapsible=0;childLayout=tableLayout;fixedRows=1;rowLines=0;fontStyle=1;align=center;fontFamily=Helvetica;fontSize=15;" vertex="1" parent="1">
          <mxGeometry x="560" y="80" width="240" height="290" as="geometry" />
        </mxCell>
        <mxCell id="GUt3DPPbfCVoAX1tNQYl-46" value="" style="shape=partialRectangle;html=1;whiteSpace=wrap;collapsible=0;dropTarget=0;pointerEvents=0;fillColor=none;top=0;left=0;bottom=1;right=0;points=[[0,0.5],[1,0.5]];portConstraint=eastwest;fontFamily=Helvetica;fontSize=15;" vertex="1" parent="GUt3DPPbfCVoAX1tNQYl-45">
          <mxGeometry y="30" width="240" height="30" as="geometry" />
        </mxCell>
        <mxCell id="GUt3DPPbfCVoAX1tNQYl-47" value="" style="shape=partialRectangle;html=1;whiteSpace=wrap;connectable=0;fillColor=none;top=0;left=0;bottom=0;right=0;overflow=hidden;fontFamily=Helvetica;fontSize=15;" vertex="1" parent="GUt3DPPbfCVoAX1tNQYl-46">
          <mxGeometry width="56" height="30" as="geometry" />
        </mxCell>
        <mxCell id="GUt3DPPbfCVoAX1tNQYl-48" value="" style="shape=partialRectangle;html=1;whiteSpace=wrap;connectable=0;fillColor=none;top=0;left=0;bottom=0;right=0;align=left;spacingLeft=6;overflow=hidden;fontFamily=Helvetica;fontSize=15;" vertex="1" parent="GUt3DPPbfCVoAX1tNQYl-46">
          <mxGeometry x="56" width="184" height="30" as="geometry" />
        </mxCell>
        <mxCell id="GUt3DPPbfCVoAX1tNQYl-49" value="" style="shape=partialRectangle;html=1;whiteSpace=wrap;collapsible=0;dropTarget=0;pointerEvents=0;fillColor=none;top=0;left=0;bottom=0;right=0;points=[[0,0.5],[1,0.5]];portConstraint=eastwest;fontFamily=Helvetica;fontSize=15;" vertex="1" parent="GUt3DPPbfCVoAX1tNQYl-45">
          <mxGeometry y="60" width="240" height="30" as="geometry" />
        </mxCell>
        <mxCell id="GUt3DPPbfCVoAX1tNQYl-50" value="" style="shape=partialRectangle;html=1;whiteSpace=wrap;connectable=0;fillColor=none;top=0;left=0;bottom=0;right=0;overflow=hidden;fontFamily=Helvetica;fontSize=15;" vertex="1" parent="GUt3DPPbfCVoAX1tNQYl-49">
          <mxGeometry width="56" height="30" as="geometry" />
        </mxCell>
        <mxCell id="GUt3DPPbfCVoAX1tNQYl-51" value="user_no : Long" style="shape=partialRectangle;html=1;whiteSpace=wrap;connectable=0;fillColor=none;top=0;left=0;bottom=0;right=0;align=left;spacingLeft=6;overflow=hidden;fontFamily=Helvetica;fontSize=15;" vertex="1" parent="GUt3DPPbfCVoAX1tNQYl-49">
          <mxGeometry x="56" width="184" height="30" as="geometry" />
        </mxCell>
        <mxCell id="GUt3DPPbfCVoAX1tNQYl-52" value="" style="shape=partialRectangle;html=1;whiteSpace=wrap;collapsible=0;dropTarget=0;pointerEvents=0;fillColor=none;top=0;left=0;bottom=0;right=0;points=[[0,0.5],[1,0.5]];portConstraint=eastwest;fontFamily=Helvetica;fontSize=15;" vertex="1" parent="GUt3DPPbfCVoAX1tNQYl-45">
          <mxGeometry y="90" width="240" height="30" as="geometry" />
        </mxCell>
        <mxCell id="GUt3DPPbfCVoAX1tNQYl-53" value="" style="shape=partialRectangle;html=1;whiteSpace=wrap;connectable=0;fillColor=none;top=0;left=0;bottom=0;right=0;overflow=hidden;fontFamily=Helvetica;fontSize=15;" vertex="1" parent="GUt3DPPbfCVoAX1tNQYl-52">
          <mxGeometry width="56" height="30" as="geometry" />
        </mxCell>
        <mxCell id="GUt3DPPbfCVoAX1tNQYl-54" value="mention_no : Long" style="shape=partialRectangle;html=1;whiteSpace=wrap;connectable=0;fillColor=none;top=0;left=0;bottom=0;right=0;align=left;spacingLeft=6;overflow=hidden;fontFamily=Helvetica;fontSize=15;" vertex="1" parent="GUt3DPPbfCVoAX1tNQYl-52">
          <mxGeometry x="56" width="184" height="30" as="geometry" />
        </mxCell>
        <mxCell id="GUt3DPPbfCVoAX1tNQYl-55" value="" style="shape=partialRectangle;html=1;whiteSpace=wrap;collapsible=0;dropTarget=0;pointerEvents=0;fillColor=none;top=0;left=0;bottom=0;right=0;points=[[0,0.5],[1,0.5]];portConstraint=eastwest;fontFamily=Helvetica;fontSize=15;" vertex="1" parent="GUt3DPPbfCVoAX1tNQYl-45">
          <mxGeometry y="120" width="240" height="30" as="geometry" />
        </mxCell>
        <mxCell id="GUt3DPPbfCVoAX1tNQYl-56" value="" style="shape=partialRectangle;html=1;whiteSpace=wrap;connectable=0;fillColor=none;top=0;left=0;bottom=0;right=0;overflow=hidden;fontFamily=Helvetica;fontSize=15;" vertex="1" parent="GUt3DPPbfCVoAX1tNQYl-55">
          <mxGeometry width="56" height="30" as="geometry" />
        </mxCell>
        <mxCell id="GUt3DPPbfCVoAX1tNQYl-57" value="contents : String" style="shape=partialRectangle;html=1;whiteSpace=wrap;connectable=0;fillColor=none;top=0;left=0;bottom=0;right=0;align=left;spacingLeft=6;overflow=hidden;fontFamily=Helvetica;fontSize=15;" vertex="1" parent="GUt3DPPbfCVoAX1tNQYl-55">
          <mxGeometry x="56" width="184" height="30" as="geometry" />
        </mxCell>
        <mxCell id="GUt3DPPbfCVoAX1tNQYl-58" value="" style="shape=partialRectangle;html=1;whiteSpace=wrap;collapsible=0;dropTarget=0;pointerEvents=0;fillColor=none;top=0;left=0;bottom=0;right=0;points=[[0,0.5],[1,0.5]];portConstraint=eastwest;fontFamily=Helvetica;fontSize=15;" vertex="1" parent="GUt3DPPbfCVoAX1tNQYl-45">
          <mxGeometry y="150" width="240" height="30" as="geometry" />
        </mxCell>
        <mxCell id="GUt3DPPbfCVoAX1tNQYl-59" value="" style="shape=partialRectangle;html=1;whiteSpace=wrap;connectable=0;fillColor=none;top=0;left=0;bottom=0;right=0;overflow=hidden;fontFamily=Helvetica;fontSize=15;" vertex="1" parent="GUt3DPPbfCVoAX1tNQYl-58">
          <mxGeometry width="56" height="30" as="geometry" />
        </mxCell>
        <mxCell id="GUt3DPPbfCVoAX1tNQYl-60" value="regdate : Localdatetime" style="shape=partialRectangle;html=1;whiteSpace=wrap;connectable=0;fillColor=none;top=0;left=0;bottom=0;right=0;align=left;spacingLeft=6;overflow=hidden;fontFamily=Helvetica;fontSize=15;" vertex="1" parent="GUt3DPPbfCVoAX1tNQYl-58">
          <mxGeometry x="56" width="184" height="30" as="geometry" />
        </mxCell>
        <mxCell id="GUt3DPPbfCVoAX1tNQYl-61" value="" style="shape=partialRectangle;html=1;whiteSpace=wrap;collapsible=0;dropTarget=0;pointerEvents=0;fillColor=none;top=0;left=0;bottom=0;right=0;points=[[0,0.5],[1,0.5]];portConstraint=eastwest;fontFamily=Helvetica;fontSize=15;" vertex="1" parent="GUt3DPPbfCVoAX1tNQYl-45">
          <mxGeometry y="180" width="240" height="30" as="geometry" />
        </mxCell>
        <mxCell id="GUt3DPPbfCVoAX1tNQYl-62" value="" style="shape=partialRectangle;html=1;whiteSpace=wrap;connectable=0;fillColor=none;top=0;left=0;bottom=0;right=0;overflow=hidden;fontFamily=Helvetica;fontSize=15;" vertex="1" parent="GUt3DPPbfCVoAX1tNQYl-61">
          <mxGeometry width="56" height="30" as="geometry" />
        </mxCell>
        <mxCell id="GUt3DPPbfCVoAX1tNQYl-63" value="latitude : Long" style="shape=partialRectangle;html=1;whiteSpace=wrap;connectable=0;fillColor=none;top=0;left=0;bottom=0;right=0;align=left;spacingLeft=6;overflow=hidden;fontFamily=Helvetica;fontSize=15;" vertex="1" parent="GUt3DPPbfCVoAX1tNQYl-61">
          <mxGeometry x="56" width="184" height="30" as="geometry" />
        </mxCell>
        <mxCell id="GUt3DPPbfCVoAX1tNQYl-64" value="" style="shape=partialRectangle;html=1;whiteSpace=wrap;collapsible=0;dropTarget=0;pointerEvents=0;fillColor=none;top=0;left=0;bottom=0;right=0;points=[[0,0.5],[1,0.5]];portConstraint=eastwest;fontFamily=Helvetica;fontSize=15;" vertex="1" parent="GUt3DPPbfCVoAX1tNQYl-45">
          <mxGeometry y="210" width="240" height="30" as="geometry" />
        </mxCell>
        <mxCell id="GUt3DPPbfCVoAX1tNQYl-65" value="" style="shape=partialRectangle;html=1;whiteSpace=wrap;connectable=0;fillColor=none;top=0;left=0;bottom=0;right=0;overflow=hidden;fontFamily=Helvetica;fontSize=15;" vertex="1" parent="GUt3DPPbfCVoAX1tNQYl-64">
          <mxGeometry width="56" height="30" as="geometry" />
        </mxCell>
        <mxCell id="GUt3DPPbfCVoAX1tNQYl-66" value="longitude : Long" style="shape=partialRectangle;html=1;whiteSpace=wrap;connectable=0;fillColor=none;top=0;left=0;bottom=0;right=0;align=left;spacingLeft=6;overflow=hidden;fontFamily=Helvetica;fontSize=15;" vertex="1" parent="GUt3DPPbfCVoAX1tNQYl-64">
          <mxGeometry x="56" width="184" height="30" as="geometry" />
        </mxCell>
        <mxCell id="GUt3DPPbfCVoAX1tNQYl-67" value="" style="shape=partialRectangle;html=1;whiteSpace=wrap;collapsible=0;dropTarget=0;pointerEvents=0;fillColor=none;top=0;left=0;bottom=0;right=0;points=[[0,0.5],[1,0.5]];portConstraint=eastwest;fontFamily=Helvetica;fontSize=15;" vertex="1" parent="GUt3DPPbfCVoAX1tNQYl-45">
          <mxGeometry y="240" width="240" height="20" as="geometry" />
        </mxCell>
        <mxCell id="GUt3DPPbfCVoAX1tNQYl-68" value="" style="shape=partialRectangle;html=1;whiteSpace=wrap;connectable=0;fillColor=none;top=0;left=0;bottom=0;right=0;overflow=hidden;fontFamily=Helvetica;fontSize=15;" vertex="1" parent="GUt3DPPbfCVoAX1tNQYl-67">
          <mxGeometry width="56" height="20" as="geometry" />
        </mxCell>
        <mxCell id="GUt3DPPbfCVoAX1tNQYl-69" value="location : String" style="shape=partialRectangle;html=1;whiteSpace=wrap;connectable=0;fillColor=none;top=0;left=0;bottom=0;right=0;align=left;spacingLeft=6;overflow=hidden;fontFamily=Helvetica;fontSize=15;" vertex="1" parent="GUt3DPPbfCVoAX1tNQYl-67">
          <mxGeometry x="56" width="184" height="20" as="geometry" />
        </mxCell>
        <mxCell id="GUt3DPPbfCVoAX1tNQYl-80" value="List" style="swimlane;fontStyle=0;childLayout=stackLayout;horizontal=1;startSize=26;horizontalStack=0;resizeParent=1;resizeParentMax=0;resizeLast=0;collapsible=1;marginBottom=0;" vertex="1" parent="1">
          <mxGeometry x="260" y="40" width="250" height="190" as="geometry">
            <mxRectangle x="260" y="40" width="50" height="26" as="alternateBounds" />
          </mxGeometry>
        </mxCell>
        <mxCell id="GUt3DPPbfCVoAX1tNQYl-85" value="-mention_no : Long" style="shape=partialRectangle;html=1;whiteSpace=wrap;connectable=0;fillColor=none;top=0;left=0;bottom=0;right=0;align=left;spacingLeft=6;overflow=hidden;fontFamily=Helvetica;fontSize=15;" vertex="1" parent="GUt3DPPbfCVoAX1tNQYl-80">
          <mxGeometry y="26" width="250" height="30" as="geometry" />
        </mxCell>
        <mxCell id="GUt3DPPbfCVoAX1tNQYl-86" value="-contents : String" style="shape=partialRectangle;html=1;whiteSpace=wrap;connectable=0;fillColor=none;top=0;left=0;bottom=0;right=0;align=left;spacingLeft=6;overflow=hidden;fontFamily=Helvetica;fontSize=15;" vertex="1" parent="GUt3DPPbfCVoAX1tNQYl-80">
          <mxGeometry y="56" width="250" height="30" as="geometry" />
        </mxCell>
        <mxCell id="GUt3DPPbfCVoAX1tNQYl-90" value="-location : String" style="shape=partialRectangle;html=1;whiteSpace=wrap;connectable=0;fillColor=none;top=0;left=0;bottom=0;right=0;align=left;spacingLeft=6;overflow=hidden;fontFamily=Helvetica;fontSize=15;" vertex="1" parent="GUt3DPPbfCVoAX1tNQYl-80">
          <mxGeometry y="86" width="250" height="20" as="geometry" />
        </mxCell>
        <mxCell id="GUt3DPPbfCVoAX1tNQYl-89" value="-longitude : Long" style="shape=partialRectangle;html=1;whiteSpace=wrap;connectable=0;fillColor=none;top=0;left=0;bottom=0;right=0;align=left;spacingLeft=6;overflow=hidden;fontFamily=Helvetica;fontSize=15;" vertex="1" parent="GUt3DPPbfCVoAX1tNQYl-80">
          <mxGeometry y="106" width="250" height="30" as="geometry" />
        </mxCell>
        <mxCell id="GUt3DPPbfCVoAX1tNQYl-88" value="-latitude : Long" style="shape=partialRectangle;html=1;whiteSpace=wrap;connectable=0;fillColor=none;top=0;left=0;bottom=0;right=0;align=left;spacingLeft=6;overflow=hidden;fontFamily=Helvetica;fontSize=15;" vertex="1" parent="GUt3DPPbfCVoAX1tNQYl-80">
          <mxGeometry y="136" width="250" height="30" as="geometry" />
        </mxCell>
        <mxCell id="GUt3DPPbfCVoAX1tNQYl-84" value="-user_no : Long" style="shape=partialRectangle;html=1;whiteSpace=wrap;connectable=0;fillColor=none;top=0;left=0;bottom=0;right=0;align=left;spacingLeft=6;overflow=hidden;fontFamily=Helvetica;fontSize=15;" vertex="1" parent="GUt3DPPbfCVoAX1tNQYl-80">
          <mxGeometry y="166" width="250" height="24" as="geometry" />
        </mxCell>
        <mxCell id="GUt3DPPbfCVoAX1tNQYl-81" value="+set_location : String&#xa;&#xa;" style="text;strokeColor=none;fillColor=none;align=left;verticalAlign=top;spacingLeft=4;spacingRight=4;overflow=hidden;rotatable=0;points=[[0,0.5],[1,0.5]];portConstraint=eastwest;" vertex="1" parent="1">
          <mxGeometry x="299" y="510" width="230" height="34" as="geometry" />
        </mxCell>
        <mxCell id="GUt3DPPbfCVoAX1tNQYl-87" value="-regdate : Localdatetime" style="shape=partialRectangle;html=1;whiteSpace=wrap;connectable=0;fillColor=none;top=0;left=0;bottom=0;right=0;align=left;spacingLeft=6;overflow=hidden;fontFamily=Helvetica;fontSize=15;" vertex="1" parent="1">
          <mxGeometry x="280" y="470" width="230" height="34" as="geometry" />
        </mxCell>
      </root>
    </mxGraphModel>
  </diagram>
</mxfile>
